<svg height="1029" viewBox="1510 -5 6156 4395" width="2500" xmlns="http://www.w3.org/2000/svg"><g fill="#393435"><path d="m3733 4375c-7-8-13-21-13-30 0-8-4-15-10-15-5 0-10-9-10-20s-3-20-8-20c-14 0-46-96-63-192-10-54-10-84 1-154 18-116 6-190-46-276-22-35-42-64-46-66-5-2-8-12-8-23 0-10-4-19-10-19-5 0-10-13-10-30 0-16-4-30-10-30s-10-28-10-65-4-65-10-65c-5 0-10-8-10-18s-9-24-20-32-20-22-20-32-3-18-8-18c-4 0-13-15-21-32-8-18-24-47-37-65-13-17-24-35-24-38 0-4-13-20-30-35-16-15-30-33-30-40 0-13-117-130-130-130-5 0-15-6-22-13-21-20-97-67-108-67-5 0-10-4-10-9s-13-14-30-21c-16-7-30-16-30-21s-13-9-30-9c-16 0-30-4-30-10 0-5-9-10-20-10s-20-4-20-10c0-5-7-10-15-10s-24-8-36-17c-39-32-119-112-119-118 0-12-29-35-44-35-9 0-16-4-16-10 0-5-9-10-20-10s-20-4-20-10c0-5-7-10-15-10-9 0-25-9-37-20s-28-20-36-20c-7 0-36-23-63-51-35-36-49-58-49-78 0-21-14-42-57-84-69-65-103-109-103-131 0-9-4-16-10-16-5 0-10-18-10-40s-4-40-10-40c-5 0-10-13-10-30 0-16-4-30-10-30-5 0-10-13-10-30 0-16-4-30-10-30-5 0-10-16-10-35s-4-35-10-35c-5 0-10-13-10-30 0-16-4-30-8-30-13 0-46-132-62-250-25-181-37-214-88-245-19-11-53-39-78-63-24-23-48-42-54-42-18 0-90-72-112-112-12-21-25-38-30-38-4 0-8-9-8-20s-4-20-10-20c-5 0-10-8-10-18s-9-24-20-32-20-22-20-32-4-18-10-18c-5 0-10-9-10-19 0-11-3-21-7-23-7-3-21-33-69-146-9-20-14-69-14-127 0-79 4-103 24-147 14-29 31-74 38-100 7-27 16-48 20-48s8-7 8-16 14-29 30-44c17-15 30-35 30-44s5-16 10-16c6 0 10-5 10-11 0-16 31-38 53-39 9 0 17-4 17-10 0-5 9-10 20-10s20-4 20-10c0-5 9-10 20-10s20-4 20-10 27-10 60-10 60-4 60-10 32-10 75-10 75 4 75 10 22 10 49 10c46 0 52 3 115 63 83 78 81 77 141 107 28 14 52 28 53 33 2 4 17 7 33 7s29 5 29 10c0 6 7 10 16 10 22 0 44 25 44 49 0 12 5 21 12 21s5 7-5 18c-45 50-77 251-77 490 0 122 3 148 20 181 10 21 42 96 70 167 85 214 183 368 330 514 135 135 197 184 289 230 113 57 335 126 523 164 78 15 133 37 197 78l34 21 41-21c23-12 51-22 64-22 12 0 22-4 22-10 0-5 9-10 20-10 28 0 34-33 26-168-10-171-10-169 2-267 7-50 21-109 32-132s20-49 20-58c0-8 5-15 10-15 6 0 10-32 10-75s4-75 10-75 10-43 10-110-4-110-10-110-10-38-10-95 4-95 10-95 10-18 10-40c0-21 9-86 20-142 13-69 20-144 20-229v-126l50-64c27-35 67-86 87-113 21-27 87-97 146-157l108-109 931 2 930 3 54 89c67 108 101 149 179 211 88 70 88 69 80 155-4 41-11 85-17 99-5 14-11 72-14 130-5 96-9 112-42 176-19 39-48 95-64 125-23 46-28 67-28 132 0 66 3 81 23 104 15 18 34 27 55 28 22 1 34 8 41 23 9 20 5 26-48 62-82 56-114 97-150 193-22 56-54 112-99 174-77 103-93 144-142 364-48 217-45 211-99 243-63 39-91 81-91 141 0 26 5 56 10 66 10 19 118 94 188 129 42 22 83 76 102 134 17 55 64 104 132 138 32 16 58 33 58 37 0 36 190 190 309 252 39 20 81 53 81 65 0 4 9 18 20 32s25 43 30 65c7 25 30 57 65 93 31 30 55 64 55 75s5 20 10 20c6 0 10 9 10 19 0 11 3 21 8 23 4 2 18 24 31 51 13 26 27 47 31 47 15 0 60 133 60 178 0 18 4 32 9 32s11 14 15 30c3 18 12 30 21 30 8 0 15 5 15 10 0 6 9 10 20 10s20 5 20 10c0 6 12 10 26 10 28 0 35 6 79 65 16 22 35 46 41 53 7 6 16 21 19 32s11 20 16 20c15 0 10 49-8 78-9 15-41 51-70 80l-53 52h-1888c-1617-1-1889-3-1899-15z"/><path d="m2733 1160c-10-26-9-36 1-54 8-12 16-67 20-126 3-58 12-125 20-150 14-44 15-42 15 93 1 85-3 137-9 137-5 0-10 16-10 35s-4 35-9 35c-6 0-11 14-13 31l-3 32z"/></g><g fill="#947971"><path d="m3733 4375c-7-8-13-21-13-30 0-8-4-15-10-15-5 0-10-9-10-20s-3-20-8-20c-14 0-46-96-63-192-10-54-10-84 1-154 18-116 6-190-46-276-22-35-42-64-46-66-5-2-8-12-8-23 0-10-4-19-10-19-5 0-10-13-10-30 0-16-4-30-10-30s-10-28-10-65-4-65-10-65c-5 0-10-8-10-18s-9-24-20-32-20-22-20-32-3-18-8-18c-4 0-13-15-21-32-8-18-24-47-37-65-13-17-24-35-24-38 0-4-13-20-30-35-16-15-30-33-30-40 0-13-117-130-130-130-5 0-15-6-22-13-21-20-97-67-108-67-5 0-10-4-10-9s-13-14-30-21c-16-7-30-16-30-21s-13-9-30-9c-16 0-30-4-30-10 0-5-9-10-20-10s-20-4-20-10c0-5-7-10-15-10s-24-8-36-17c-39-32-119-112-119-118 0-12-29-35-44-35-9 0-16-4-16-10 0-5-9-10-20-10s-20-4-20-10c0-5-7-10-15-10-9 0-25-9-37-20s-28-20-35-20c-17 0-64-46-56-54 4-3 0-6-7-6-21 0-50-41-50-70 0-20-15-42-57-83-69-65-103-109-103-131 0-9-4-16-10-16-5 0-10-18-10-40s-4-40-10-40c-5 0-10-13-10-30 0-16-4-30-10-30-5 0-10-13-10-30 0-16-4-30-10-30-5 0-10-16-10-35s-4-35-10-35c-5 0-10-13-10-30 0-16-4-30-9-30s-11-10-14-23c-3-12-9-33-13-47-7-24-7-24 13-8 64 57 83-45 26-139-7-13-16-44-20-70-7-54-28-93-50-93-12 0-14 7-8 32 3 18 8 58 10 88l3 55-8-55c-28-178-37-203-90-237-69-46-70-46-64-70 4-13 2-23-5-23-6 0-8 7-4 16 5 14 3 14-16 3-11-8-21-17-21-21 0-5-9-8-20-8s-19-3-17-7c1-5-2-9-6-10-17-2-69-58-90-95-11-21-24-38-29-38-4 0-8-9-8-20s-4-20-10-20c-5 0-10-8-10-18s-9-24-20-32-20-22-20-32-4-18-10-18c-5 0-10-9-10-19 0-11-3-21-7-23-7-3-21-33-69-146-9-20-14-69-14-128 0-81 4-102 25-144 14-27 25-57 25-67s5-25 10-33c8-11 9-6 5 19l-6 34 51-51c29-29 50-59 50-72 0-47 30-81 98-112 77-35 135-75 127-89-4-5 8-9 24-9 17 0 31-4 31-10s32-10 75-10 75 4 75 10 22 10 49 10c46 0 52 3 115 63 83 78 81 77 141 107 28 14 52 28 53 33 2 4 17 7 33 7s29 5 29 10c0 6 7 10 16 10 22 0 44 25 44 49 0 12 5 21 12 21 6 0 4 8-6 19s-26 45-35 77c-15 48-19 53-24 33-12-44-8-66 13-72 40-10 21-28-27-25-43 3-48 6-51 28-4 31 41 116 58 112 10-2 11 10 7 50-4 29-7 67-7 83-1 26-2 28-11 11-9-15-13-16-20-5-13 21-11 86 3 101 9 8 14 54 17 128 2 86 8 124 22 151 10 20 41 94 69 165s65 154 82 184c55 97 148 228 205 287 30 32 56 65 57 73 2 8 7 15 12 15s15 4 23 9c10 7 11 10 0 16-9 6-3 22 25 64 20 31 36 64 34 73-4 23 85 67 119 58 32-8 40-32 17-51-11-8 14 2 54 21 109 53 335 123 514 159 78 15 133 37 197 78l34 21 41-21c23-12 51-22 64-22 12 0 22-4 22-10 0-5 9-10 20-10 28 0 34-33 26-168-10-171-10-169 3-272 13-107 25-131 29-62 6 82 5 124-3 249-7 103-5 127 9 163 10 26 15 54 11 71-5 23-3 29 11 29 10 0 31 12 46 27s28 23 28 17c2-58 32-254 46-297 15-47 21-56 43-59 18-2 27-10 29-25 3-23 83-103 103-103 6 0 28 14 49 30 29 23 48 30 82 30 31 0 54 7 78 25 36 27 72 31 116 15 15-6 31-7 38-2 11 10 71 19 165 28 29 2 61 9 71 14 30 16 45-13 24-45-29-45-92-59-126-28-17 15-20 15-41-5-30-28-55-36-227-68-80-15-148-32-152-38-4-5 0-25 8-44s14-52 14-73c0-35 4-40 38-55 57-26 109-23 171 10 81 42 83 43 130 66 24 11 50 19 57 16 24-9 15-43-15-63-86-55-151-117-168-161-14-37-25-48-60-64-45-20-53-37-29-57 16-14 51 1 74 32 24 31 59 21 82-22 11-23 40-54 67-72s54-41 61-51 20-18 29-18 38-21 65-46c43-40 53-45 81-40 46 9 50 9 69 1 22-9 38 28 38 90 0 55 8 75 26 68 8-3 23 2 34 12 14 13 23 14 39 6 28-15 33-3 31 77-2 106-2 108 26 121 22 10 25 16 19 39-3 15-12 32-19 37-16 12-26 52-19 71s61 18 119-2c36-12 63-14 123-8 87 9 100 8 122-12 20-18 56-18 105 0 38 13 87 10 167-10 25-6 28-4 25 12-4 23-108 82-159 90-56 9-74 25-60 52 6 12 21 22 32 22s32 12 46 26l26 26-7-25c-8-32 16-53 72-62 38-6 42-5 42 13 0 11-12 34-26 51-15 18-24 40-22 53 3 20 10 23 56 26 45 3 52 6 52 24 0 24-28 154-40 185-14 35 3 36 31 2l26-32 6 113c3 62 11 118 16 123 15 15 14 62-2 76-8 6-17 8-20 5-9-10-27 43-27 79 0 30 3 28 44-38 24-38 55-81 68-95 33-33 78-123 78-155 0-29 64-232 81-255 10-13 10-13 6 0-2 8-21 89-42 180-54 242-50 231-104 263-63 39-91 81-91 141 0 26 5 56 10 66 10 19 118 94 188 129 42 22 83 76 102 134 17 55 64 104 132 138 32 16 58 33 58 37 0 36 190 190 309 252 39 20 81 53 81 65 0 4 9 18 20 32s25 43 30 65c7 25 30 57 65 93 31 30 55 64 55 75s5 20 10 20c6 0 10 9 10 19 0 11 3 21 8 23 4 2 18 24 31 51 13 26 27 47 31 47 15 0 60 133 60 178 0 18 4 32 9 32s11 14 15 30c3 18 12 30 21 30 8 0 15 5 15 10 0 6 9 10 20 10s20 5 20 10c0 6 12 10 26 10 28 0 35 6 79 65 16 22 35 46 41 53 7 6 16 21 19 32s11 20 16 20c15 0 10 49-8 78-9 15-41 51-70 80l-53 52h-1888c-1617-1-1889-3-1899-15zm963-228c33-29 25-52-15-42-14 4-34 14-44 23-17 16-17 17-1 29 24 17 29 17 60-10zm98-310c12-19 3-32-19-24-17 7-21 51-3 45 6-2 16-12 22-21zm456-93c0-22 4-33 10-29s8 15 5 25c-8 26 4 30 55 17 56-15 118-77 198-197 31-47 59-89 61-95 2-5 16-26 31-45s59-82 98-140 91-125 116-148c25-24 46-47 46-51s30-32 68-61c37-30 86-74 109-99s46-49 50-53c42-35 113-104 113-110 0-4-16-5-35-3-31 4-37 2-46-22-5-15-7-38-4-51 5-20 11-23 47-20 38 3 43 6 50 35 9 36 25 50 40 35s-32-112-82-166c-45-49-64-56-73-28-77 243-240 486-435 645-38 32-74 57-80 57s-25 12-42 26c-17 15-54 36-83 48s-79 36-112 53c-97 50-182 67-297 59-54-3-98-4-98-2s17 15 38 30c24 17 51 26 75 26 21 0 37 5 37 12 0 6-27 36-60 65-47 43-60 61-60 84 0 19 6 32 18 36 33 12 77 33 137 67 33 19 70 35 83 35 19 1 22-4 22-35zm-296-97c19-29 14-49-9-40-8 3-15 17-15 31 0 25-41 72-62 72-4 0-8 7-8 16 0 20 68-37 94-79zm-204 23c0-37 42-87 80-95 40-9 51-30 33-66-8-16-18-27-23-24-12 8-50-44-50-69 0-20 4-22 68-19 67 2 67 2 37-14-16-9-32-19-35-22s-22-19-43-35c-54-40-112-104-164-183-25-38-62-88-82-113-41-50-101-141-101-152 0-4-6-8-14-8-17 0-39 58-67 180-23 100-72 258-90 292-24 45 45 104 89 77 16-10 26-10 44-2 53 26 76 22 113-19 20-21 42-56 51-78s22-40 30-40c11 0 14 22 14 103 1 74 5 107 15 121 8 11 15 27 15 37 0 14 9 40 51 147 12 30 29 19 29-18zm398-505c35-8 80-24 100-35l37-21-85 6c-89 6-181-3-290-29-36-8-67-12-70-9-8 7 50 53 90 70 31 14 98 29 140 32 8 0 43-6 78-14zm69-187c15-6 44-13 63-14 19-2 54-10 77-19s55-15 70-13 30-1 32-7c6-15-69-53-114-57-37-3-41-1-57 35-19 38-40 47-63 24-9-10-42-13-116-12-63 1-111-3-123-10-72-40-85-51-95-86-10-33-7-69 6-69 2 0 28 16 57 35 34 23 59 32 73 29 12-3 37 2 56 11 26 12 48 15 81 10 31-5 51-3 61 5 16 13 35 6 35-14 0-17-36-33-85-40-102-14-122-18-156-36-53-27-136-50-181-50-44 0-83 31-94 75-6 23 0 33 42 70 27 24 55 44 62 45 8 0 28 14 45 31 29 30 86 53 152 62 63 9 145 7 172-5zm-2147-221c0-2-13-46-30-97-20-66-30-116-30-162 0-71 16-167 31-182 5-6 9-17 10-25 0-9 13-43 28-76 16-33 27-62 25-64-8-9-76 70-105 124s-33 70-36 165c-4 97-2 111 25 187 17 46 37 90 46 98 9 9 16 21 16 26s5 9 10 9c6 0 10-1 10-3zm1690-132c0-8-7-15-15-15s-15 7-15 15 7 15 15 15 15-7 15-15zm385-5c22-11 48-20 58-20 12 0 17-5 14-14-7-17 13-26 53-26 19 0 33-7 40-20 8-16 6-22-14-35-39-26-77-16-105 28-18 28-31 37-51 37-33 0-80-35-80-60 0-31-54-80-89-80-19 0-34 6-37 15-8 20-31 19-42-2-6-10-16-14-26-10-51 20 28 116 96 117 13 0 43 20 71 45 27 25 54 45 61 45 6 0 29-9 51-20zm149-16c27-10 18-21-14-16-16 2-27 8-24 13 6 11 16 11 38 3zm-2789-160c-20-21-28-25-38-15-16 16 3 45 32 49 11 2 22 9 22 15 1 7 3 5 6-4 2-9-8-29-22-45zm-154-190c11-14 10-18-6-30-10-8-27-14-37-14-27 0-35 30-13 46 25 18 40 18 56-2zm-61-149c0-11-9-38-20-60s-20-56-20-75c0-43-8-54-27-39-20 17-15 68 12 127 14 30 25 66 25 80 1 26 1 26 15 8 8-11 15-29 15-41zm963-85c-20-23-43-26-43-6 0 15 15 24 42 25 17 1 17 0 1-19zm1401-70c-10-4-23-5-28-2s-1 9 10 12c10 4 23 5 28 2s1-9-10-12zm1028-22c9-7 21-28 25-47 13-49 34-59 68-33 29 23 99 30 110 12 3-6-15-20-42-31-38-16-70-21-153-22-134-1-227 23-237 60-7 31 9 43 62 43 22 0 51 7 65 15 31 18 81 19 102 3zm-272-64c0-9-7-14-17-12-25 5-28 28-4 28 12 0 21-6 21-16zm-206-645c33-26 33-47 2-55-35-8-46 2-46 42 0 39 7 42 44 13zm-3129-29c3-6 16-10 28-10 13 0 31-10 41-21l18-22-61 5c-70 5-86 16-77 52 5 22 9 25 26 16 10-5 22-15 25-20zm-151-66c10-14 25-24 34-22 32 5 42-12 42-71 0-45 5-64 25-91 26-35 31-65 16-89-8-12-14-12-44 2-49 24-68 22-144-17-78-40-132-56-185-56-37 0-37 0-26 31 6 17 35 57 65 89l55 59 22-26c19-22 25-24 43-14 12 6 35 11 52 11s31 5 31 10c0 6 11 15 24 21 51 24 38 83-21 93-62 10-67 17-43 59 26 44 32 45 54 11zm176-493c0-5-7-15-16-22-12-10-15-25-12-61 4-34 1-48-7-48-7 0-16 7-19 16-4 9-13 14-21 10-27-10-16 21 20 60 19 20 35 41 35 45 0 5 5 9 10 9 6 0 10-4 10-9zm76-200c17-35 45-74 62-88 62-48 31-97-98-156-71-33-151-97-120-97 9 0 11-3 4-10s-21-7-42 1c-27 9-30 14-22 29 6 10 10 39 10 63 0 43 2 45 48 68 80 41 142 97 142 129 0 15-7 30-14 33-21 8-47 63-40 82 12 30 39 10 70-54z"/><path d="m3089 1903-34-38 38 34c20 19 37 36 37 38 0 8-8 0-41-34zm3341-110c0-10 109-227 138-273 12-19 25-51 28-70 7-47 24-90 35-90 5 0 11 11 15 25 6 25 7 25 27 8 12-10 7-2-10 19-17 20-45 74-62 120-22 57-54 112-101 176-39 52-70 90-70 85zm-4359-110c0-12-4-30-7-40-5-17-5-17 6 0 6 10 9 28 7 40-4 22-4 22-6 0zm3954-183c-9-27 3-60 21-60 19 0 28 24 20 55-8 30-32 33-41 5zm-155-123c0-2 18-23 40-48 24-27 40-38 40-28 0 16-56 79-71 79-5 0-9-1-9-3zm918-69c9-12 10-17 1-20-6-2-10-12-8-23 4-16 6-15 16 7s9 29-5 40c-15 11-16 11-4-4zm-101-19c-9-6-26-7-37-4-15 5-20 2-20-14 0-11 4-22 9-25s12-32 15-63c15-123 21-134 26-48 4 58 2 82-7 88-15 9-18 47-4 47 6 0 16-8 23-18 11-15 17-16 35-7l23 12-21 21c-11 12-21 22-22 22s-10-5-20-11zm-3954-129c-10-26-9-36 1-54 8-12 16-67 20-126 3-58 12-125 20-150 14-44 15-42 15 93 1 85-3 137-9 137-5 0-10 16-10 35s-4 35-9 35c-6 0-11 14-13 31l-3 32zm2622-10c-9-14 11-77 31-97 16-16 17-15 10 31-11 73-24 94-41 66zm775-46c0-11 7-29 15-40 8-10 15-27 15-36 0-10 5-18 10-18 18 0 10 40-15 78-20 29-25 32-25 16zm95 6c-3-5-1-18 4-27 9-16 10-14 11 10 0 28-5 34-15 17zm305 2c0-5 7-17 15-28 15-19 20-8 9 20-6 17-24 22-24 8zm-282-77c-8-8 2-87 15-114 7-14 18-27 26-29 11-4 13 5 8 43-7 47-38 111-49 100zm432-57c0-36-5-89-11-116-8-32-8-59-2-77 8-26 10-27 25-11 16 15 16 11 11-51-6-78 7-123 36-123 21 0 31-18 31-58 0-43 15-60 40-44 19 12 20 10 20-52 0-58-2-65-21-68-12-2-30-18-40-36-9-19-26-43-36-55-20-24 45 25 91 68 28 26 28 27 21 103-4 42-11 87-17 101-5 14-11 72-14 130-5 96-9 112-42 176-19 39-48 95-64 125l-28 55zm-1288-8c0-19 2-27 5-17 2 9 2 25 0 35-3 9-5 1-5-18zm1130-86c-1-27-7-55-13-61s-9-21-7-34l3-24 13 23c8 14 12 46 9 85-3 59-3 59-5 11zm-144 10c-4-3-5-41-2-83 7-88-11-145-51-163-17-8-27-24-36-62-6-28-20-68-30-88-37-72-16-145 30-104 17 16 51 132 51 176 0 13 16 40 36 62l35 39-7 97c-7 100-15 138-26 126zm-272-19c-25-26-21-100 6-119 31-22 41-7 42 66 1 50-2 63-15 66-9 2-24-4-33-13zm-1155-39c-13-14-32-26-43-28-17-3-18-5-3-25 33-46 102-10 93 48-4 32-20 33-47 5zm656 17c-4-3-7-15-7-25 0-15 5-18 20-13 16 5 25-3 47-38 24-40 79-78 118-82 27-3 44-20 49-51 10-49 33-44 47 10 6 25 17 47 25 50 16 6 19 62 5 71-5 3-21 0-35-7-23-10-29-8-49 10-16 15-36 22-64 22-27 0-46 6-58 20-11 12-26 18-35 15-11-3-20 1-24 10-6 15-27 20-39 8zm-182-55c-2-13-6-43-7-67-3-50-23-65-37-29-9 22-10 22-10-8-1-32 45-134 60-134h17c4 1 6 12 4 25-2 17 1 25 12 25 20 0 20 17 1 36-8 9-15 31-15 50 0 30 3 34 19 29 23-7 32 18 19 55-16 44-54 55-63 18zm-576-112c19-23 91-56 91-42 0 7-20 22-44 34-50 26-63 28-47 8zm1100-68c-2-108 3-243 10-253 3-5 9 22 13 60 4 39 10 96 14 128 7 72-2 127-21 127-11 0-15-15-16-62zm106-31c-14-30-24-69-24-88 1-19 3-26 6-16 6 21 12 21 34 1 17-16 19-15 29 10 12 32 16 118 6 134-13 22-25 12-51-41zm-1772-77c0-41 2-58 4-37 2 20 2 54 0 75-2 20-4 3-4-38zm2174 33c-9-8-9-70-1-100 11-40 24-14 24 48 0 55-6 69-23 52zm-277-78c0-25 5-45 10-45 6 0 10 20 10 45s-4 45-10 45c-5 0-10-20-10-45zm390 25c-8-5-22-7-30-5-20 6-65-103-55-134 10-32 23-25 35 18 11 43 34 59 49 34 8-15 10-15 26 0 9 10 25 22 36 27 21 12 25 40 7 58-14 14-47 15-68 2zm70-155c-9-11-23-14-46-9-29 5-34 3-48-23-8-16-22-35-30-42-32-27-19-46 32-49 26-1 57-8 70-14 19-10 26-8 46 11 24 23 25 23 5 44-27 30-24 51 11 64 17 6 30 16 30 22 0 17-56 13-70-4zm-2175-125c21-22 41-40 44-40s-13 18-34 40-41 40-44 40 13-18 34-40zm-2785-37c0-10 40-36 46-30 3 2-7 12-21 21s-25 13-25 9zm2880-68c19-19 36-35 39-35s-10 16-29 35-36 35-39 35 10-16 29-35zm-2730-15c0-5 12-10 28-9 24 0 25 1 7 9-27 12-35 12-35 0zm2790-33c0-2 15-16 33-33l32-29-29 33c-28 30-36 37-36 29z"/></g><g fill="#cdc7c6"><path d="m3733 4375c-7-8-13-21-13-30 0-8-4-15-10-15-5 0-10-9-10-20s-3-20-8-20c-14 0-46-96-63-192-10-54-10-84 1-154 18-116 6-190-46-276-22-35-42-64-46-66-5-2-8-12-8-23 0-10-4-19-10-19-5 0-10-13-10-30 0-16-4-30-10-30s-10-28-10-65-4-65-10-65c-5 0-10-8-10-18s-9-24-20-32-20-22-20-32-3-18-8-18c-4 0-13-15-21-32-8-18-24-47-37-65-13-17-24-35-24-38 0-4-13-20-30-35-16-15-30-33-30-40 0-13-117-130-130-130-5 0-15-6-22-13-21-20-97-67-108-67-5 0-10-4-10-9s-13-14-30-21c-16-7-30-16-30-21s-13-9-30-9c-16 0-30-4-30-10 0-5-9-10-20-10s-20-4-20-10c0-5-7-10-15-10s-24-8-36-17c-39-32-119-112-119-118 0-12-29-35-44-35-9 0-16-4-16-10 0-5-9-10-20-10s-20-4-20-10c0-5-9-10-20-10-22 0-25-7-11-29 8-12 15-10 40 10 16 13 55 39 85 58s60 44 67 57c11 21 27 30 104 64 11 5 36 11 55 14 119 17 130 24 130 77 0 21 7 45 16 53 20 21 23 20 17-5-3-11 0-38 7-59 12-35 10-46-20-131-29-83-32-101-27-173 6-100 45-226 92-296 19-29 35-54 35-56s-11-4-24-4c-35 0-99 71-143 158-36 72-36 76-37 192 0 92-3 117-12 109-7-6-15-29-19-52-11-72-13-74-45-69-17 2-32 8-35 11-8 13-65-1-65-16 0-17 36-90 48-95 10-4 62-97 62-112 0-6 20-36 44-67 45-58 82-126 73-135-3-3-20 11-39 31-86 95-128 136-128 125 0-23-25-38-44-28-13 8-21 7-27-3-10-16-9-9-12-151-2-106-10-136-27-108-6 8-10 12-10 7 0-4 5-16 12-26 9-15 8-22-5-36-12-12-17-13-17-3 0 7-5 5-12-6-6-11-12-53-13-95-3-108-4-113-14-106-12 7-21-7-23-39-2-18-8-26-21-26-11 0-17-6-15-16 2-12-6-17-29-19-18-1-33 2-33 7s-5 6-11 2c-7-4-7-9-1-13 5-3 8-17 6-31-1-14-3-31-3-38-1-7-21-22-45-33-49-21-65-44-33-46 26-2 38-22 26-45-16-29-14-109 4-155 15-37 24-84 27-138 1-29 23 13 80 157 33 81 44 121 38 132-11 19-1 39 16 33 6-3 21 12 33 33 14 27 16 37 7 33-33-12-9 27 51 85 36 35 68 74 71 88 3 13 10 24 14 24s25 21 46 48c21 26 30 40 19 32-17-13-18-13-10 0 36 61 96 149 105 155 14 9 31 49 39 94 3 19 13 36 21 37 59 13 143 42 149 53 7 11 19 11 67 0 33-7 63-15 67-19 10-8 87 11 87 22 0 4 7 5 15 2 8-4 15-1 15 5 0 22 84 54 142 55 32 1 58 5 58 9 0 5 5 5 10 2 17-11 110 5 107 18-1 6 9 13 22 15 15 2 21 0 16-7-10-17 84 22 129 52 46 32 52 33 94 7 18-11 44-20 57-20 14 0 25-4 25-10 0-5 9-10 20-10 28 0 34-33 26-168-10-159-10-167-1-249 8-71 8-72 22-45 12 22 13 40 3 107-14 96-13 277 1 286 6 3 8 21 5 39-6 41 8 70 34 70 12 0 20 8 22 22 2 15 13 25 35 31 40 12 45 24 30 73-16 51-44 92-68 99-12 4-22 19-26 36-3 16-10 32-14 35-15 9-11 47 5 41 17-7 56 33 56 57 0 9-5 26-11 37-8 17-7 23 8 34 16 13 17 15 2 30-16 16-15 65 1 65 5 0 11 18 15 39 3 22 15 47 26 57 10 9 19 27 19 38 0 16 3 18 9 7 6-9 11-10 15-2 9 14 46-4 46-23 0-13 31-46 43-46 3 0 5 6 3 13-2 6-13 44-24 82-11 39-28 104-37 145-17 77-29 115-64 210-26 68-26 81-1 113 11 14 20 32 20 40s10 27 22 42l21 27 13-23c7-13 13-31 14-40 0-25 30-33 30-9 0 11 5 20 10 20 6 0 15 11 20 25 14 36 38 31 58-14 18-40 74-95 86-84 9 9 7 51-3 57-16 10-22 85-9 106 16 25 19 25 46 0l21-20 17 52c10 29 20 85 23 123 5 58 9 70 23 67 12-2 20 8 27 35 6 21 11 46 11 55s4 19 9 22c9 6 77-70 120-134 13-19 39-48 58-64 30-26 35-27 51-14 9 9 29 18 44 22 27 6 68 41 68 58 0 4-9 8-20 8s-20 6-20 14-11 28-25 44c-31 37-20 43 59 35 48-5 59-10 73-33 12-21 24-28 47-28 17 0 51-8 75-16 24-9 51-16 61-16 24 0 130-114 175-190 161-272 301-452 430-555 33-26 83-70 110-99 79-80 168-158 193-167 44-17 14-109-63-194-57-63-67-94-40-129 14-18 15-17 15 23 0 23 5 51 10 61 10 19 118 93 187 129 46 23 76 63 103 135 21 56 77 117 119 131 12 3 19 11 16 16-8 12 75 99 97 103 22 3 68 45 68 62 0 18 306 324 324 324 12 0 11-9-5-52-10-29-19-54-19-56s-4-1-9 2-12-2-16-12c-13-28-14-42-3-42 5 0 8 5 6 12-2 6 6 21 18 33 13 13 28 41 34 64 7 28 28 59 65 96 31 30 55 64 55 75s5 20 10 20c6 0 10 9 10 19 0 11 3 21 8 23 4 2 18 24 31 51 13 26 27 47 31 47 15 0 60 133 60 178 0 18 4 32 9 32s11 14 15 30c3 18 12 30 21 30 8 0 15 5 15 10 0 6 9 10 20 10s20 5 20 10c0 6 12 10 28 10 17 0 34 9 46 24 10 14 17 26 15 28-1 2 14 20 33 40 20 20 39 46 43 57 3 12 11 21 16 21 15 0 10 49-8 78-9 15-41 51-70 80l-53 52h-1888c-1617-1-1889-3-1899-15zm1796-100c0-26-2-27-9-10-5 11-9 31-9 45-1 20 1 22 9 10 5-8 9-28 9-45zm-1800-30c0-5-6-1-14 9s-11 24-8 29c6 10 21-16 22-38zm980-75c51-25 55-42 21-75-27-26-31-27-60-15-38 16-71 56-63 76 5 14 35 32 56 33 4 1 25-8 46-19zm871-59c-1-10-6-7-15 9-19 33-18 50 0 26 8-11 15-27 15-35zm1980-28c-17-26-37-51-46-56-13-8-13-5 1 28 8 21 15 39 15 41 0 3 50 32 57 34 2 0-11-21-27-47zm-2901-238c-8-26-21-54-30-63-25-27-89-83-89-79 0 25 33 83 72 125 26 30 48 58 48 64s3 9 6 5c4-3 0-27-7-52zm-1039-294c0-14-14-21-48-25-35-4-66 10-42 18 8 3 29 7 45 9 17 2 33 5 38 6 4 0 7-3 7-8zm-230-535c0-16-18-31-27-22-8 8 5 36 17 36 5 0 10-6 10-14zm-40-81c0-14-62-126-67-122-7 7 16 76 35 105 13 20 32 30 32 17zm-84-181c-3-8-10-14-15-14s-4 13 2 31c8 21 13 26 15 14 2-9 1-23-2-31zm-86-4c0-22-36-90-47-90-19 0-16 30 7 68 19 31 40 43 40 22zm35-115c-15-36-32-65-37-65-12 0-11 4 23 76 40 84 50 76 14-11zm141-42c-13-24-15-25-16-7 0 11 5 25 12 32 19 19 21 6 4-25z"/><path d="m5065 3398c-22-5-50-12-62-14-42-8-25-26 22-23 95 6 76-49-22-62-124-17-252-106-253-176 0-34 23-29 129 24 82 41 104 48 160 50 73 2 146-10 194-30 48-21 109-40 136-43 37-4 55-27 42-53-9-17-21-21-59-21-26 0-63 5-82 11-103 33-246 26-324-15-73-39-55-57 44-45 137 18 248 7 352-33 17-6 54-8 93-3 64 6 65 7 75 43 8 31 16 39 47 49s42 9 65-5c32-19 34-33 14-111-36-140-39-169-19-195 10-14 33-33 51-41 18-9 36-23 39-31 13-35-55-139-92-139-15 0-20-7-20-27 1-16-3-28-7-28s-8-6-8-12c0-15-57-78-71-78-5 0-9-4-9-10 0-13-82-89-97-90-7 0-13 4-13 9 0 22 32 95 55 125 14 18 25 41 25 50s14 49 30 88c17 38 30 76 30 83s10 25 22 41c23 29 26 83 5 96-6 3-10 25-9 47 2 39 1 41-19 30-16-8-27-8-45 2-34 18-112-2-177-45-67-45-91-53-169-61-34-4-86-18-114-31-58-28-135-44-206-44h-48l16-25c15-23 21-24 83-21 36 2 83 11 103 20 51 22 125 21 170-4 30-16 49-19 95-14 54 6 61 4 100-25 40-29 73-83 73-119 0-13-3-13-19 2-18 16-22 16-49 2-49-26-105-30-141-12-24 13-36 14-52 6-11-6-29-13-40-15s-26-11-35-20c-25-24-75-47-114-52-20-3-47-16-63-32l-28-27 23-34c38-56 138-103 138-65 0 18 5 18 31 5 10-6 19-19 19-30 0-10 5-22 11-26 8-4 9-32 4-88l-7-82 36-28c20-15 36-33 36-41s11-22 24-30c23-15 27-15 68 11 24 15 53 37 65 47 14 12 31 18 47 15 14-3 25-2 24 1 0 3 1 11 2 16 1 6 3 15 4 20 5 27 47 105 56 105 5 0 10 6 10 14 0 19 15 28 51 30 16 1 35 10 42 20 11 15 19 16 61 6 59-13 86-27 86-44 0-8 10-11 28-9 16 2 41-5 60-17 29-18 33-24 27-50-4-20-1-39 12-60 15-26 16-32 3-40-8-5-22-5-33 2-36 19-159 21-257 4-101-17-114-23-104-49 8-23 74-22 132 0 38 14 51 15 90 4 61-16 72-27 66-60-8-40 20-49 43-15 14 22 21 25 51 19 19-3 80-11 136-16 55-5 116-12 135-15l34-7-7 43c-4 23-14 56-22 73-20 38-31 142-16 151 7 4 19-2 29-14 26-30 36-24 30 18-2 21-1 46 4 54 6 10 1 61-11 133-11 64-20 133-20 153-1 21-7 53-14 72-93 240-187 390-343 547-82 82-109 103-131 103-34 0-111 36-118 55-3 7-20 19-37 26-18 7-54 30-81 51-80 63-233 99-321 76zm1924-165c-20-22-21-24-4-15 39 22 47 29 38 35-6 4-21-5-34-20zm-2426-244c-46-42-43-58 9-56 36 2 43 6 51 30 10 32 4 57-15 57-7 0-28-14-45-31zm-58-83c-13-15-35-54-35-61 0-3 6-5 14-5 21 0 38 26 34 53-2 18-6 22-13 13zm275-444c0-29 49-122 63-122 24 0 26 11 9 49-35 77-72 115-72 73z"/><path d="m4670 2442c-33-5-120-62-120-79 0-7-6-16-14-19-17-6-106-130-106-147 0-6 20-20 43-30 87-38 94-48 45-71-37-18-62-51-52-67s69-39 101-39c14 0 36 9 48 20 74 70 212 119 294 105 53-9 121-14 121-10 0 22-37 75-52 75-27 0-89 35-117 65-13 14-36 33-51 42-19 11-31 28-35 50-8 47-72 109-105 105zm-2274-28c-9-8-16-27-16-42 0-16-14-41-37-66-21-22-30-34-20-26 14 10 21 10 29 2 21-21 38-13 54 27 11 27 23 41 37 43 17 2 22 9 20 32-3 35-10 43-25 28-17-17-31-15-24 3 7 19 1 19-18-1zm3823-93c7-11 23-28 36-37s29-31 35-49 18-39 26-45c11-10 14-8 14 11 0 46-22 85-64 110-57 34-59 34-47 10zm-3929-148c0-24 16-48 23-36 8 13-3 53-14 53-5 0-9-8-9-17zm4041-33c-1-34 40-182 46-164 1 5-8 52-21 104-17 68-24 85-25 60zm-1501-187c-13-9-47-20-76-24s-65-14-81-22c-15-9-38-21-51-27-29-12-26-44 4-48 12-2 46 8 77 22 62 29 84 31 122 14 19-9 28-9 37 0 7 7 23 12 36 12 30 0 122 32 122 42 0 5-7 8-15 8s-15 5-15 10c0 6-15 8-38 4-26-4-49-1-69 9-27 15-32 15-53 0zm-1746-55-29-33 33 29c30 28 37 36 29 36-2 0-16-15-33-32zm-984-102c0-8 5-18 10-21 6-3 10 3 10 14 0 12-4 21-10 21-5 0-10-6-10-14zm3745 3c-16-5-65-12-108-15-42-4-85-12-94-19-15-11-14-16 8-56 26-48 51-59 77-36 9 9 34 18 54 22 21 4 51 20 68 36 16 16 36 29 44 29 22 0 38 24 24 38s-31 14-73 1zm605-33c0-4 12-25 27-49 14-23 39-68 55-99 16-32 32-58 37-58 10 0 25-37 41-97 6-24 15-43 20-43 6 0 10 3 10 6 0 18-74 192-93 219-36 51-97 127-97 121zm-1585-22c-72-9-171-28-179-35-6-5 7-16 30-25 21-9 40-17 42-19s-6-21-17-43c-19-38-19-82 1-82 14 0 68 30 68 38 0 4 13 14 29 24 28 16 91 109 91 136 0 12-6 12-65 6zm-2796-72c-3-20-2-29 4-23 5 5 7 19 5 32-3 20-5 19-9-9zm-16-122c0-30 2-43 4-27 2 15 2 39 0 55-2 15-4 2-4-28zm3174 3c-13-12-7-124 8-160 8-19 15-50 16-67l1-31 10 35c5 19 7 48 5 65-3 16 0 56 6 88 9 49 9 60-3 67-18 11-34 13-43 3zm-282-55c-24-24-55-51-69-61-35-25-34-58 4-80 29-18 30-18 36 0 20 63 27 73 50 73 13 0 32-10 43-21 27-29 51-18 51 23 0 33-35 94-59 103-7 3-32-14-56-37zm-2925-109c-17-44-45-74-81-89-39-17-38-38 1-32 25 3 29 1 24-12-3-9-12-16-19-16-8 0-17-10-21-22-5-16 0-27 17-41 22-18 24-18 36-1 7 10 13 25 13 35 0 9 7 22 16 30 10 8 14 25 13 48-2 22 4 47 15 64 14 21 16 33 9 49-9 20-10 19-23-13zm292-191c-6-6-12-20-12-31 0-14 6-18 28-15 21 2 27 8 27 28 0 28-23 38-43 18zm-489-19c-12-12-32-22-44-23-15-1-32-14-46-36-13-19-30-43-38-53-8-9-15-24-15-32s-4-15-10-15c-5 0-10-8-10-18s-9-24-20-32-20-22-20-32-4-18-10-18c-5 0-10-9-10-19 0-11-3-21-7-23-10-4-83-170-83-188 0-12 62 7 72 22 4 7 8 22 8 34 0 11 11 41 25 65s28 51 32 59c3 8 24 33 45 55s41 48 44 58c3 9 9 17 14 17s18 15 27 34c10 19 41 59 69 88 70 74 72 78 32 78-21 0-42-8-55-21zm910-19c-10-27-10-36 2-54 8-11 15-30 15-41 0-14 7-21 20-22 11-1 20 2 20 8 0 5-4 9-10 9-5 0-10 16-10 35s-4 35-9 35c-6 0-11 14-13 31l-3 32zm3940-15c0-27 2-38 4-22 2 15 2 37 0 50-2 12-4 0-4-28zm-4624-68c-26-20-32-90-10-118 38-50 43-66 30-110-11-34-10-46 3-72l43-86c22-45 25-58 16-78-16-35-13-67 7-89 19-20 43-62 61-107 16-40 52-53 100-37 34 11 47 10 107-9 38-12 86-24 106-27 26-5 35-10 31-20-3-8-2-14 2-14 12 0 35 28 35 44 0 15-10 18-104 30-60 8-62 16-31 102 24 65 27 83 19 122-8 42-34 72-34 39 0-28-30-41-88-38-101 4-111 13-62 63 44 43 45 42-44 72-61 19-68 53-22 109 44 54 45 76 5 121-24 28-39 36-72 38-32 2-43 8-45 22-2 10 3 23 12 28s16 13 16 18c0 14-62 12-81-3zm405-10c-10-5-26-17-35-26s-32-31-52-48c-47-42-40-61 21-65 43-3 48-6 57-35 10-35 28-42 51-19 9 10 14 37 14 83 0 107-13 133-56 110zm-234-16c0-5 7-12 16-15 24-9 28-7 14 9-14 17-30 20-30 6zm-381-34c-29-24-45-62-30-71 5-4 12-2 16 4 3 5 15 10 26 10 27 0 48 46 28 65-12 12-18 11-40-8zm915-67c3-19 6-48 6-63 0-25 2-27 15-13 9 9 15 33 15 65 0 44-2 50-21 48-18-1-20-6-15-37zm3931-75c-3-26-4-49-2-52 3-3 9 16 12 42 4 25 5 48 2 51-2 3-8-16-12-41zm51-19c-8-70-4-88 18-80 15 6 31-29 22-45-7-10 13-203 21-211 9-9 34 34 28 48-3 8-8 58-11 111-6 121-7 126-42 190l-29 53zm-4828-28c-29-29-65-48-92-48-11 0-48-9-81-20s-72-22-87-25c-24-5-28-10-28-40 0-22-5-35-13-35-17 0-38-36-31-55 16-39 219 4 294 64 19 15 57 36 83 47 52 20 73 50 63 90-4 13-16 26-29 29-12 4-30 9-39 11-9 3-27-5-40-18z"/><path d="m6727 754c-4-4-7-23-7-41 0-38 23-42 28-5 4 25-11 56-21 46zm-4675-44c-12-5-27-21-34-35-15-34-63-62-121-70-26-4-57-15-70-25-20-16-39-22-107-35-14-3-32-13-40-23s-27-23-42-30c-25-10-31-8-68 28-49 47-60 49-60 13 1-31 49-128 50-100 0 25 19 21 29-6 12-30 77-87 99-87 9 1 28 7 42 15s30 14 36 15c16 0 24-23 17-49-6-23-41-28-74-11-17 10-19 7-19-23 0-44 26-68 119-107 41-18 80-38 88-46 17-17 39-9 46 17 5 20-25 49-51 49-22 0-10 44 13 48 93 13 137 27 181 61 53 40 69 71 35 71-22 0-30 9-36 42-6 32-25 45-70 52-35 6-44 3-72-24-34-32-63-39-63-16 0 16 45 66 59 66 5 0 25 25 43 55s36 55 39 55c11 0 69 82 69 97s-6 15-38 3zm2231-215c0-33 2-45 4-27s2 45 0 60-4 0-4-33zm2560-75c0-25 2-35 4-22 2 12 2 32 0 45-2 12-4 2-4-23zm-31-63c-12-7-30-24-39-37-14-22-13-22 18 5 19 16 38 33 44 37 14 12 3 9-23-5zm-4322-57c0-5 7-10 15-10s15 5 15 10c0 6-7 10-15 10s-15-4-15-10zm-114-8c-22-2-51-12-65-24-60-46-141-130-136-138 4-6 1-10-5-10s-8-4-5-10c4-6-5-10-20-10s-24-4-20-10c3-5 21-10 39-10 28 0 46 12 100 62 82 79 81 78 141 108 27 14 55 30 62 37 13 12-6 13-91 5zm2089-82c21-22 41-40 44-40s-13 18-34 40-41 40-44 40 13-18 34-40zm95-105c19-19 36-35 39-35s-10 16-29 35-36 35-39 35 10-16 29-35zm60-48c0-2 15-16 33-33l32-29-29 33c-28 30-36 37-36 29z"/></g></svg>